<?xml version="1.0" standalone="no"?>
<!DOCTYPE svg PUBLIC "-//W3C//DTD SVG 20010904//EN"
 "http://www.w3.org/TR/2001/REC-SVG-20010904/DTD/svg10.dtd">
<svg version="1.0" xmlns="http://www.w3.org/2000/svg"
 width="512.000000pt" height="512.000000pt" viewBox="0 0 512.000000 512.000000"
 preserveAspectRatio="xMidYMid meet">

<g transform="translate(0.000000,512.000000) scale(0.100000,-0.100000)"
fill="#000000" stroke="none">
<path d="M1645 4814 c-429 -29 -825 -207 -1123 -503 -277 -276 -442 -601 -503
-991 -19 -120 -17 -401 4 -525 126 -752 707 -1328 1462 -1450 153 -25 400 -23
555 4 230 40 484 142 674 270 89 60 247 193 299 250 21 23 42 41 47 39 5 -2
61 -45 125 -97 l115 -94 0 -63 c0 -124 -28 -97 750 -735 382 -314 711 -579
730 -589 90 -46 181 -34 259 36 108 97 108 235 -2 341 -45 44 -1269 1051
-1368 1126 -52 39 -134 55 -198 38 l-51 -13 -124 102 -124 102 48 74 c105 161
190 369 236 578 35 154 44 452 20 606 -23 141 -49 241 -97 368 -218 583 -744
1010 -1359 1106 -100 16 -291 26 -375 20z m312 -199 c241 -34 452 -113 648
-243 593 -394 846 -1130 618 -1802 -245 -724 -992 -1168 -1742 -1035 -565 100
-1030 499 -1214 1045 -57 166 -71 268 -71 490 0 176 3 220 22 310 71 325 218
589 453 815 122 117 245 203 394 276 276 135 595 186 892 144z"/>
<path d="M1635 4543 c-350 -28 -683 -182 -930 -429 -496 -495 -576 -1269 -192
-1851 301 -456 821 -709 1359 -662 207 18 424 83 594 180 407 232 675 621 744
1079 14 96 14 324 0 420 -116 770 -808 1325 -1575 1263z m375 -208 c365 -82
670 -302 852 -617 311 -535 198 -1216 -268 -1620 -527 -456 -1309 -416 -1787
91 -164 175 -272 383 -324 621 -14 66 -18 127 -18 270 1 199 15 288 72 440
111 297 354 566 641 709 88 44 253 98 353 115 110 20 374 15 479 -9z"/>
<path d="M2574 3392 c-13 -8 -314 -602 -314 -618 0 -6 7 -17 15 -24 13 -10 19
-10 33 3 9 9 84 151 166 316 127 254 148 302 137 315 -15 18 -21 19 -37 8z"/>
<path d="M923 3374 c-7 -3 -28 -27 -46 -53 -29 -40 -44 -51 -93 -67 -47 -15
-60 -24 -62 -42 -6 -39 15 -52 79 -52 l59 0 0 -167 c0 -195 6 -216 61 -221 63
-5 64 -2 64 305 0 260 -1 275 -19 289 -21 15 -24 15 -43 8z"/>
<path d="M1246 3369 c-21 -5 -51 -18 -67 -30 -68 -48 -107 -195 -89 -336 20
-158 86 -233 205 -233 96 0 144 32 187 125 20 44 23 66 23 175 0 98 -4 135
-18 170 -42 104 -136 154 -241 129z m116 -130 c40 -54 40 -285 0 -339 -15 -20
-28 -25 -63 -25 -38 0 -46 4 -65 33 -42 62 -41 265 2 329 30 47 92 48 126 2z"/>
<path d="M1745 3371 c-45 -11 -69 -26 -103 -65 -43 -49 -62 -121 -62 -231 0
-137 34 -227 103 -279 41 -30 160 -35 203 -7 77 48 114 141 114 286 0 185 -60
281 -185 298 -22 3 -53 2 -70 -2z m103 -126 c31 -39 46 -150 34 -242 -14 -100
-34 -128 -92 -128 -58 0 -79 28 -91 124 -8 69 2 196 18 225 30 54 97 65 131
21z"/>
<path d="M2193 3373 c-58 -12 -100 -98 -89 -187 10 -84 56 -129 131 -129 87 0
130 52 130 158 0 73 -18 120 -56 143 -21 14 -85 22 -116 15z m71 -85 c32 -45
12 -168 -26 -168 -6 0 -20 7 -30 17 -38 34 -16 173 27 173 8 0 21 -10 29 -22z"/>
<path d="M2580 3073 c-46 -24 -70 -73 -70 -146 0 -108 43 -157 137 -157 56 0
86 17 109 63 20 38 22 143 3 182 -31 64 -115 91 -179 58z m98 -83 c17 -32 10
-126 -10 -147 -54 -54 -100 77 -56 160 13 25 49 18 66 -13z"/>
</g>
</svg>
